<?xml version="1.0" encoding="UTF-8"?>
<svg xmlns="http://www.w3.org/2000/svg" xmlns:xlink="http://www.w3.org/1999/xlink" width="100px" height="63px" viewBox="0 0 100 63" version="1.1">
<defs>
<clipPath id="clip1">
  <path d="M 30 18.835938 L 70 18.835938 L 70 44.164062 L 30 44.164062 Z M 30 18.835938 "/>
</clipPath>
</defs>
<g id="surface1">
<path style=" stroke:none;fill-rule:nonzero;fill:rgb(21.568627%,25.490196%,31.764706%);fill-opacity:1;" d="M 18.75 31.5 C 18.75 14.101562 32.742188 0 50 0 C 67.257812 0 81.25 14.101562 81.25 31.5 C 81.25 48.898438 67.257812 63 50 63 C 32.742188 63 18.75 48.898438 18.75 31.5 Z M 18.75 31.5 "/>
<g clip-path="url(#clip1)" clip-rule="nonzero">
<path style=" stroke:none;fill-rule:nonzero;fill:rgb(100%,74.509804%,47.45098%);fill-opacity:1;" d="M 59.269531 21.992188 C 61.359375 23.246094 62.402344 24.753906 62.402344 26.523438 C 62.402344 27.914062 61.632812 29.402344 60.097656 30.992188 C 59.210938 31.925781 58.160156 32.730469 56.949219 33.40625 C 55.738281 34.082031 54.539062 34.570312 53.355469 34.867188 C 51.304688 35.363281 49.453125 35.613281 47.796875 35.613281 C 47.441406 35.613281 47.089844 35.601562 46.734375 35.582031 C 45.292969 37.707031 43.816406 39.515625 42.296875 41.007812 C 40.070312 43.113281 37.617188 44.164062 34.9375 44.164062 C 32.375 44.164062 30.796875 43.460938 30.207031 42.050781 C 30.070312 41.710938 30 41.320312 30 40.871094 C 30 40.425781 30.226562 39.941406 30.679688 39.425781 C 31.390625 38.613281 32.386719 38.203125 33.664062 38.203125 C 34.492188 38.203125 35.359375 38.355469 36.265625 38.652344 C 36.601562 38.773438 36.722656 38.898438 36.621094 39.039062 C 36.542969 39.117188 36.289062 39.078125 35.855469 38.921875 C 35.421875 38.761719 34.882812 38.683594 34.246094 38.683594 C 33.601562 38.683594 33.042969 38.925781 32.558594 39.410156 C 32.074219 39.898438 31.832031 40.421875 31.832031 40.976562 C 31.832031 41.195312 31.871094 41.414062 31.953125 41.632812 C 32.265625 42.707031 33.164062 43.242188 34.640625 43.242188 C 36.847656 43.242188 39.015625 42.207031 41.144531 40.140625 C 42.664062 38.652344 44.367188 35.96875 46.261719 32.09375 C 46.988281 30.644531 47.894531 29.03125 48.980469 27.25 C 50.0625 25.476562 51.167969 23.949219 52.292969 22.679688 C 52.429688 22.539062 52.605469 22.363281 52.824219 22.144531 C 53.238281 21.664062 53.582031 21.289062 53.859375 21.007812 C 52.4375 20.8125 50.921875 20.710938 49.304688 20.710938 C 47.6875 20.710938 46.160156 20.847656 44.722656 21.113281 C 43.285156 21.382812 42.03125 21.699219 40.96875 22.066406 C 39.902344 22.433594 38.824219 22.910156 37.734375 23.496094 C 36.636719 24.082031 35.714844 24.824219 34.964844 25.71875 C 33.980469 26.851562 33.488281 28.035156 33.488281 29.265625 C 33.488281 30.019531 33.753906 30.726562 34.285156 31.382812 C 34.859375 32.074219 35.59375 32.425781 36.492188 32.425781 C 37.386719 32.425781 38.253906 32.074219 39.09375 31.382812 C 39.929688 30.6875 40.523438 29.832031 40.878906 28.816406 C 40.898438 28.679688 40.941406 28.582031 41.007812 28.53125 C 41.082031 28.484375 41.144531 28.492188 41.203125 28.550781 C 41.265625 28.609375 41.292969 28.710938 41.292969 28.847656 C 41.273438 30.136719 40.777344 31.15625 39.804688 31.898438 C 38.824219 32.648438 37.746094 33.019531 36.5625 33.019531 C 35.222656 33.019531 34.128906 32.625 33.28125 31.828125 C 32.433594 31.03125 32.011719 30.011719 32.011719 28.757812 C 32.011719 27.605469 32.316406 26.566406 32.925781 25.640625 C 33.539062 24.71875 34.265625 23.96875 35.113281 23.394531 C 35.960938 22.820312 36.9375 22.300781 38.042969 21.84375 C 39.914062 21.089844 41.878906 20.558594 43.941406 20.246094 C 46 19.941406 47.917969 19.789062 49.703125 19.789062 C 51.488281 19.789062 53.140625 19.949219 54.65625 20.265625 C 55.367188 19.707031 55.988281 19.332031 56.519531 19.132812 C 57.050781 18.933594 57.351562 18.835938 57.421875 18.835938 C 57.492188 18.835938 57.535156 18.84375 57.554688 18.863281 C 57.671875 18.863281 57.699219 18.929688 57.628906 19.054688 C 57.558594 19.1875 57.332031 19.382812 56.949219 19.640625 C 56.5625 19.898438 56.195312 20.207031 55.839844 20.5625 C 57.101562 20.902344 58.242188 21.378906 59.269531 21.992188 Z M 47.5625 34.957031 C 49 34.957031 50.5625 34.703125 52.25 34.195312 C 53.933594 33.691406 55.425781 32.949219 56.726562 31.976562 C 59.25 30.050781 60.511719 28.0625 60.511719 26.015625 C 60.511719 23.691406 58.765625 22.113281 55.277344 21.277344 C 54.171875 22.828125 52.746094 25.183594 50.992188 28.339844 C 49.234375 31.5 47.957031 33.707031 47.148438 34.957031 C 47.285156 34.957031 47.421875 34.957031 47.5625 34.957031 Z M 66.363281 34.957031 C 66.363281 34.421875 66.097656 34.152344 65.566406 34.152344 C 64.777344 34.152344 63.863281 34.605469 62.828125 35.503906 C 61.796875 36.410156 60.933594 37.359375 60.242188 38.355469 C 59.949219 38.929688 59.707031 39.65625 59.515625 40.53125 C 59.332031 41.402344 59.238281 42.011719 59.238281 42.347656 C 59.238281 42.683594 59.296875 42.902344 59.417969 43.003906 L 57.554688 43.003906 C 57.257812 43.003906 57.183594 42.738281 57.328125 42.210938 C 57.480469 41.683594 57.683594 41.117188 57.9375 40.5 C 58.195312 39.882812 58.511719 39.171875 58.894531 38.367188 C 59.28125 37.5625 59.5625 36.953125 59.742188 36.535156 C 58.125 39.617188 57.082031 41.382812 56.609375 41.839844 C 56.410156 42.019531 56.3125 41.960938 56.3125 41.660156 C 56.3125 41.601562 56.332031 41.53125 56.371094 41.453125 C 57.0625 40.539062 58.433594 38.054688 60.492188 34.003906 C 62.554688 29.949219 64 27.296875 64.828125 26.046875 C 65.496094 25.074219 66.148438 24.585938 66.777344 24.585938 C 66.777344 24.585938 66.789062 24.585938 66.808594 24.585938 L 66.953125 24.585938 C 66.976562 24.585938 67.144531 24.617188 67.46875 24.675781 C 67.796875 24.734375 68.039062 24.746094 68.195312 24.703125 C 67.46875 25.261719 66.460938 26.539062 65.179688 28.53125 C 63.898438 30.53125 62.886719 32.277344 62.136719 33.777344 C 61.386719 35.277344 60.882812 36.417969 60.628906 37.191406 C 62.421875 34.945312 64.027344 33.554688 65.445312 33.019531 C 66.117188 32.800781 66.648438 32.691406 67.042969 32.691406 C 67.910156 32.691406 68.34375 33.058594 68.34375 33.792969 C 68.34375 34.03125 68.296875 34.300781 68.195312 34.601562 C 67.921875 35.355469 67.351562 36.03125 66.492188 36.636719 C 65.636719 37.246094 64.699219 37.597656 63.671875 37.699219 C 63.4375 38.253906 63.320312 38.765625 63.320312 39.230469 C 63.320312 39.699219 63.367188 40.121094 63.464844 40.5 C 63.703125 41.453125 64.144531 42.039062 64.796875 42.257812 C 64.933594 42.296875 65.074219 42.316406 65.210938 42.316406 C 65.761719 42.316406 66.414062 41.96875 67.160156 41.273438 C 67.773438 40.597656 68.570312 39.238281 69.554688 37.191406 C 69.695312 36.933594 69.804688 36.847656 69.882812 36.933594 C 69.960938 37.027344 70 37.113281 70 37.191406 C 70 37.269531 69.851562 37.660156 69.554688 38.355469 C 69.261719 39.050781 68.847656 39.816406 68.316406 40.648438 C 67.191406 42.355469 65.949219 43.210938 64.589844 43.210938 C 63.761719 43.210938 63.121094 42.972656 62.667969 42.496094 C 62.019531 41.820312 61.691406 40.9375 61.691406 39.84375 C 61.691406 39.289062 61.839844 38.722656 62.136719 38.144531 C 62.429688 37.570312 62.777344 37.261719 63.171875 37.222656 C 63.230469 37.222656 63.289062 37.222656 63.347656 37.222656 C 64.039062 37.222656 64.710938 36.953125 65.371094 36.417969 C 66.03125 35.882812 66.363281 35.394531 66.363281 34.957031 Z M 66.363281 34.957031 "/>
</g>
</g>
</svg>
